HIERARCHY
ROOT Root
{
  OFFSET 0.0 0.0 0.0
  CHANNELS 6 Xposition Yposition Zposition Zrotation Yrotation Xrotation
  JOINT Hips
  {
    OFFSET 0.0 100.0 0.0
    CHANNELS 6 Xposition Yposition Zposition Zrotation Yrotation Xrotation
    JOINT Spine1
    {
      OFFSET 5.003913 -0.037094 -0.013727
      CHANNELS 3 Zrotation Yrotation Xrotation
      JOINT Spine2
      {
        OFFSET 7.125363 -1e-06 0.0
        CHANNELS 3 Zrotation Yrotation Xrotation
        JOINT Chest
        {
          OFFSET 7.594027 1e-06 0.0
          CHANNELS 3 Zrotation Yrotation Xrotation
          JOINT Neck1
          {
            OFFSET 26.313086 -0.460272 -0.181672
            CHANNELS 3 Zrotation Yrotation Xrotation
            JOINT Neck2
            {
              OFFSET 8.045911 0.0 0.0
              CHANNELS 3 Zrotation Yrotation Xrotation
              JOINT Head
              {
                OFFSET 6.432774 0.0 0.0
                CHANNELS 3 Zrotation Yrotation Xrotation
                JOINT HeadEnd
                {
                  OFFSET 16.169773 0.06451 0.00362
                  CHANNELS 3 Zrotation Yrotation Xrotation
                }
                JOINT Jaw
                {
                  OFFSET 0.108741 3.12938 0.002639
                  CHANNELS 3 Zrotation Yrotation Xrotation
                }
                JOINT LeftEye
                {
                  OFFSET 4.45173 8.166359 3.206392
                  CHANNELS 3 Zrotation Yrotation Xrotation
                }
                JOINT RightEye
                {
                  OFFSET 4.436895 8.135758 -3.222429
                  CHANNELS 3 Zrotation Yrotation Xrotation
                }
              }
            }
          }
          JOINT LeftShoulder
          {
            OFFSET 23.218927 5.195579 1.621656
            CHANNELS 3 Zrotation Yrotation Xrotation
            JOINT LeftArm
            {
              OFFSET 15.902118 2e-06 -2e-06
              CHANNELS 3 Zrotation Yrotation Xrotation
              JOINT LeftForeArm
              {
                OFFSET 28.739307 0.0 -1e-06
                CHANNELS 3 Zrotation Yrotation Xrotation
                JOINT LeftHand
                {
                  OFFSET 27.093981 -4e-06 0.0
                  CHANNELS 3 Zrotation Yrotation Xrotation
                  JOINT LeftHandThumb1
                  {
                    OFFSET 2.276781 3.380274 0.83384
                    CHANNELS 3 Zrotation Yrotation Xrotation
                    JOINT LeftHandThumb2
                    {
                      OFFSET 4.705309 -1e-06 -1e-06
                      CHANNELS 3 Zrotation Yrotation Xrotation
                      JOINT LeftHandThumb3
                      {
                        OFFSET 2.798515 0.0 3e-06
                        CHANNELS 3 Zrotation Yrotation Xrotation
                        JOINT LeftHandThumbEnd
                        {
                          OFFSET 3.180793 4e-06 -4e-06
                          CHANNELS 3 Zrotation Yrotation Xrotation
                        }
                      }
                    }
                  }
                  JOINT LeftHandIndex1
                  {
                    OFFSET 3.247786 2.352677 0.137192
                    CHANNELS 3 Zrotation Yrotation Xrotation
                    JOINT LeftHandIndex2
                    {
                      OFFSET 6.367095 1e-06 0.0
                      CHANNELS 3 Zrotation Yrotation Xrotation
                      JOINT LeftHandIndex3
                      {
                        OFFSET 3.662364 0.0 0.0
                        CHANNELS 3 Zrotation Yrotation Xrotation
                        JOINT LeftHandIndex4
                        {
                          OFFSET 2.329242 4e-06 -4e-06
                          CHANNELS 3 Zrotation Yrotation Xrotation
                          JOINT LeftHandIndexEnd
                          {
                            OFFSET 2.767823 1e-06 0.0
                            CHANNELS 3 Zrotation Yrotation Xrotation
                          }
                        }
                      }
                    }
                  }
                  JOINT LeftHandMiddle1
                  {
                    OFFSET 3.163612 0.945023 -0.406112
                    CHANNELS 3 Zrotation Yrotation Xrotation
                    JOINT LeftHandMiddle2
                    {
                      OFFSET 6.276789 3e-06 0.0
                      CHANNELS 3 Zrotation Yrotation Xrotation
                      JOINT LeftHandMiddle3
                      {
                        OFFSET 4.35652 -1e-06 4e-06
                        CHANNELS 3 Zrotation Yrotation Xrotation
                        JOINT LeftHandMiddle4
                        {
                          OFFSET 2.996877 0.0 8e-06
                          CHANNELS 3 Zrotation Yrotation Xrotation
                          JOINT LeftHandMiddleEnd
                          {
                            OFFSET 2.323256 3e-06 -4e-06
                            CHANNELS 3 Zrotation Yrotation Xrotation
                          }
                        }
                      }
                    }
                  }
                  JOINT LeftHandRing1
                  {
                    OFFSET 2.882606 -0.309162 0.107445
                    CHANNELS 3 Zrotation Yrotation Xrotation
                    JOINT LeftHandRing2
                    {
                      OFFSET 6.033198 0.0 4e-06
                      CHANNELS 3 Zrotation Yrotation Xrotation
                      JOINT LeftHandRing3
                      {
                        OFFSET 4.350578 3e-06 0.0
                        CHANNELS 3 Zrotation Yrotation Xrotation
                        JOINT LeftHandRing4
                        {
                          OFFSET 2.651321 2e-06 -7e-06
                          CHANNELS 3 Zrotation Yrotation Xrotation
                          JOINT LeftHandRingEnd
                          {
                            OFFSET 1.937663 1e-06 -4e-06
                            CHANNELS 3 Zrotation Yrotation Xrotation
                          }
                        }
                      }
                    }
                  }
                  JOINT LeftHandPinky1
                  {
                    OFFSET 2.865315 -1.525436 0.575687
                    CHANNELS 3 Zrotation Yrotation Xrotation
                    JOINT LeftHandPinky2
                    {
                      OFFSET 5.54936 1e-06 -8e-06
                      CHANNELS 3 Zrotation Yrotation Xrotation
                      JOINT LeftHandPinky3
                      {
                        OFFSET 3.070974 0.0 -4e-06
                        CHANNELS 3 Zrotation Yrotation Xrotation
                        JOINT LeftHandPinky4
                        {
                          OFFSET 1.549672 1e-06 0.0
                          CHANNELS 3 Zrotation Yrotation Xrotation
                          JOINT LeftHandPinkyEnd
                          {
                            OFFSET 1.952123 0.0 0.0
                            CHANNELS 3 Zrotation Yrotation Xrotation
                          }
                        }
                      }
                    }
                  }
                }
              }
            }
          }
          JOINT RightShoulder
          {
            OFFSET 23.161716 5.296122 -1.380114
            CHANNELS 3 Zrotation Yrotation Xrotation
            JOINT RightArm
            {
              OFFSET -16.027195 -2e-06 1.1e-05
              CHANNELS 3 Zrotation Yrotation Xrotation
              JOINT RightForeArm
              {
                OFFSET -28.736639 4e-06 2e-06
                CHANNELS 3 Zrotation Yrotation Xrotation
                JOINT RightHand
                {
                  OFFSET -27.133619 6e-06 0.0
                  CHANNELS 3 Zrotation Yrotation Xrotation
                  JOINT RightHandThumb1
                  {
                    OFFSET -2.274328 -3.351035 -0.83067
                    CHANNELS 3 Zrotation Yrotation Xrotation
                    JOINT RightHandThumb2
                    {
                      OFFSET -4.703594 -3e-06 2e-06
                      CHANNELS 3 Zrotation Yrotation Xrotation
                      JOINT RightHandThumb3
                      {
                        OFFSET -2.794935 -4e-06 -3e-06
                        CHANNELS 3 Zrotation Yrotation Xrotation
                        JOINT RightHandThumbEnd
                        {
                          OFFSET -3.183852 4e-06 1e-06
                          CHANNELS 3 Zrotation Yrotation Xrotation
                        }
                      }
                    }
                  }
                  JOINT RightHandIndex1
                  {
                    OFFSET -3.253496 -2.33755 -0.127667
                    CHANNELS 3 Zrotation Yrotation Xrotation
                    JOINT RightHandIndex2
                    {
                      OFFSET -6.344434 0.0 0.0
                      CHANNELS 3 Zrotation Yrotation Xrotation
                      JOINT RightHandIndex3
                      {
                        OFFSET -3.654871 0.0 -8e-06
                        CHANNELS 3 Zrotation Yrotation Xrotation
                        JOINT RightHandIndex4
                        {
                          OFFSET -2.327586 -1e-06 0.0
                          CHANNELS 3 Zrotation Yrotation Xrotation
                          JOINT RightHandIndexEnd
                          {
                            OFFSET -2.770001 3e-06 8e-06
                            CHANNELS 3 Zrotation Yrotation Xrotation
                          }
                        }
                      }
                    }
                  }
                  JOINT RightHandMiddle1
                  {
                    OFFSET -3.168223 -0.944764 0.411762
                    CHANNELS 3 Zrotation Yrotation Xrotation
                    JOINT RightHandMiddle2
                    {
                      OFFSET -6.266691 -1e-06 -4e-06
                      CHANNELS 3 Zrotation Yrotation Xrotation
                      JOINT RightHandMiddle3
                      {
                        OFFSET -4.348901 0.0 0.0
                        CHANNELS 3 Zrotation Yrotation Xrotation
                        JOINT RightHandMiddle4
                        {
                          OFFSET -3.00024 2e-06 -4e-06
                          CHANNELS 3 Zrotation Yrotation Xrotation
                          JOINT RightHandMiddleEnd
                          {
                            OFFSET -2.321477 -4e-06 -4e-06
                            CHANNELS 3 Zrotation Yrotation Xrotation
                          }
                        }
                      }
                    }
                  }
                  JOINT RightHandRing1
                  {
                    OFFSET -2.885654 0.293261 -0.119232
                    CHANNELS 3 Zrotation Yrotation Xrotation
                    JOINT RightHandRing2
                    {
                      OFFSET -6.032835 -1e-06 -4e-06
                      CHANNELS 3 Zrotation Yrotation Xrotation
                      JOINT RightHandRing3
                      {
                        OFFSET -4.33881 0.0 -4e-06
                        CHANNELS 3 Zrotation Yrotation Xrotation
                        JOINT RightHandRing4
                        {
                          OFFSET -2.654903 -4e-06 -4e-06
                          CHANNELS 3 Zrotation Yrotation Xrotation
                          JOINT RightHandRingEnd
                          {
                            OFFSET -1.935122 0.0 4e-06
                            CHANNELS 3 Zrotation Yrotation Xrotation
                          }
                        }
                      }
                    }
                  }
                  JOINT RightHandPinky1
                  {
                    OFFSET -2.866241 1.503904 -0.60527
                    CHANNELS 3 Zrotation Yrotation Xrotation
                    JOINT RightHandPinky2
                    {
                      OFFSET -5.553177 -2e-06 0.0
                      CHANNELS 3 Zrotation Yrotation Xrotation
                      JOINT RightHandPinky3
                      {
                        OFFSET -3.062664 -1e-06 -4e-06
                        CHANNELS 3 Zrotation Yrotation Xrotation
                        JOINT RightHandPinky4
                        {
                          OFFSET -1.546529 2e-06 4e-06
                          CHANNELS 3 Zrotation Yrotation Xrotation
                          JOINT RightHandPinkyEnd
                          {
                            OFFSET -1.952341 0.0 -4e-06
                            CHANNELS 3 Zrotation Yrotation Xrotation
                          }
                        }
                      }
                    }
                  }
                }
              }
            }
          }
        }
      }
    }
    JOINT LeftLeg
    {
      OFFSET -8.443107 2.567604 10.043214
      CHANNELS 3 Zrotation Yrotation Xrotation
      JOINT LeftShin
      {
        OFFSET 43.229198 1e-06 -1e-06
        CHANNELS 3 Zrotation Yrotation Xrotation
        JOINT LeftFoot
        {
          OFFSET 42.298611 1e-06 1e-06
          CHANNELS 3 Zrotation Yrotation Xrotation
          JOINT LeftToeBase
          {
            OFFSET 14.165858 1e-06 0.0
            CHANNELS 3 Zrotation Yrotation Xrotation
            JOINT LeftToeEnd
            {
              OFFSET 6.7141 -0.234461 0.0
              CHANNELS 3 Zrotation Yrotation Xrotation
            }
          }
        }
      }
    }
    JOINT RightLeg
    {
      OFFSET -8.303923 2.592729 -10.047278
      CHANNELS 3 Zrotation Yrotation Xrotation
      JOINT RightShin
      {
        OFFSET -43.369682 0.0 1e-06
        CHANNELS 3 Zrotation Yrotation Xrotation
        JOINT RightFoot
        {
          OFFSET -42.260784 4e-06 2e-06
          CHANNELS 3 Zrotation Yrotation Xrotation
          JOINT RightToeBase
          {
            OFFSET -14.222245 -2e-06 -1e-06
            CHANNELS 3 Zrotation Yrotation Xrotation
            JOINT RightToeEnd
            {
              OFFSET -6.660062 0.232574 -2e-06
              CHANNELS 3 Zrotation Yrotation Xrotation
            }
          }
        }
      }
    }
  }
}
MOTION
Frames: 4
Frame Time: 0.03333333333333333
0.0 0.0 0.0 0.0 -0.0 0.0 0.407556 99.6698 2.293057 89.005821 -0.970664 87.730484 -1.413041 -2.33889 -0.07048 -11.579253 -0.636538 0.937464 9.68018 5.371219 -0.542011 10.183137 -0.873328 2.280932 -2.854004 -1.676186 -2.750035 -32.30159 -4.399614 -2.021284 6e-06 0.0 -0.0 0.005334 -0.048548 -0.219749 0.289555 -0.197875 -0.178858 0.298918 0.096008 -0.25759 -17.479969 -45.778355 19.01988 -15.336797 23.836376 -84.524742 11.515905 -5.760385 -1.686062 -1.099388 27.057686 -14.606145 17.636627 -26.322729 52.41119 -19.466665 -14.395598 29.410385 -2e-06 -8.774822 -2e-06 18.697922 -17.686651 4.371848 -0.609776 -1.795652 -3.889328 -4.807089 -11.046811 -2.93785 5e-06 -20.976015 -1e-06 -5.01997 -25.033556 -4.031882 6e-06 -2e-06 -0.0 -10.634534 -5.686975 -3.565586 10.573276 -17.922951 -3.113901 3e-06 -13.82121 0.0 -0.501777 -31.181505 -4.027016 -11.609777 -59.683586 7.664594 -13.982716 -7.150198 -2.875041 13.772731 -8.401491 -3.218243 0.347734 -34.211552 0.771654 -0.963029 -17.73337 2.621019 0.0 1e-06 0.0 -17.34642 -20.095217 -4.201782 21.757559 -1.638374 3.866426 1e-06 -6.338824 1e-06 -1.697589 -22.591742 -6.194007 -0.0 -4e-06 -2e-06 -179.438126 -60.931087 -1.970768 -5.350654 26.323542 -65.211815 11.493728 3.850796 0.383762 -12.937947 22.339113 -33.376541 22.182117 -20.375898 49.933327 -16.701817 -16.74353 28.476534 -3e-06 -12.690602 -0.0 16.668171 -17.399862 2.496579 -0.10592 -1.513857 -4.275881 -5.039039 -5.61287 -2.953559 4e-06 -11.020525 -1e-06 -6.1113 -15.895334 -3.840471 1e-06 0.0 1e-06 -10.283373 -5.680288 -4.341839 11.028296 -11.302405 -2.372633 -1.384269 -14.238582 -6.320121 -0.625438 -26.924189 -3.827601 -5.581315 -51.106876 -2.969067 -13.708529 -7.363474 -3.72094 18.141151 -14.052737 -3.242675 7e-06 -18.78727 -1e-06 -0.429711 -8.456045 2.555504 -0.0 0.0 -1e-06 -15.923539 -20.094482 -5.473587 30.419222 -7.190829 1.735926 2e-06 -8.162927 -0.0 -1.861902 -22.861473 -6.167943 0.0 -1e-06 -1e-06 178.23201 -4.573285 -8.170465 16.117376 -0.204824 0.277172 -84.269363 7.49149 -3.936864 -5.802206 1.408133 2.129137 -0.999999 0.0 -0.0 -0.42778 -3.664433 -15.162754 12.650347 -0.041565 0.067064 -81.474709 7.18293 -4.731749 -5.086853 0.830202 1.747836 -1.000001 -0.0 0.0 
0.0 0.0 0.0 0.0 -0.0 0.0 0.513207 99.668182 2.208775 89.043068 -0.949798 87.729691 -1.37207 -2.340661 -0.042843 -11.574635 -0.622324 0.969317 9.712797 5.391873 -0.508589 10.094269 -0.972032 2.262483 -2.857908 -1.658089 -2.76629 -32.513428 -4.395319 -2.059838 7e-06 -0.0 0.0 0.007456 -0.04147 -0.204933 0.310054 -0.189507 -0.164266 0.316554 0.102192 -0.241498 -17.521477 -45.657993 18.97965 -15.427999 23.714048 -84.071075 11.396058 -5.706411 -1.664983 -1.221549 27.010237 -14.962173 17.636625 -26.322729 52.411198 -19.466661 -14.395604 29.410393 -2e-06 -8.774822 -2e-06 18.724718 -17.738966 4.358563 -0.609776 -1.795652 -3.889328 -4.807089 -11.046811 -2.93785 4e-06 -20.976011 -0.0 -5.019972 -25.033552 -4.031882 7e-06 -1e-06 -0.0 -10.634535 -5.686972 -3.565587 10.573275 -17.922947 -3.113901 2e-06 -13.821209 1e-06 -0.501779 -31.181501 -4.027016 -11.635398 -59.677971 7.672079 -13.982716 -7.150197 -2.875042 13.772731 -8.401489 -3.218241 0.347732 -34.211544 0.771655 -0.96303 -17.733366 2.62102 -0.0 -0.0 0.0 -17.34642 -20.095213 -4.201781 21.757565 -1.638374 3.866427 1e-06 -6.338824 1e-06 -1.697591 -22.591743 -6.194007 0.0 -4e-06 -2e-06 -179.387451 -60.934502 -2.105379 -5.288289 26.17976 -65.001434 11.468687 3.912303 0.365849 -12.708002 22.322626 -33.539059 22.182116 -20.375893 49.933319 -16.701813 -16.74353 28.47653 -5e-06 -12.690599 0.0 16.707586 -17.426144 2.513278 -0.105919 -1.513857 -4.275881 -5.039038 -5.612868 -2.953557 4e-06 -11.020523 -1e-06 -6.111295 -15.89533 -3.840472 0.0 -0.0 1e-06 -10.283371 -5.680287 -4.341837 11.028296 -11.302404 -2.372633 -1.384267 -14.23858 -6.320119 -0.625436 -26.924187 -3.827602 -5.597457 -51.228622 -3.000135 -13.708526 -7.363477 -3.720938 18.141148 -14.052735 -3.242674 8e-06 -18.787266 -2e-06 -0.429712 -8.456041 2.555504 0.0 1e-06 -1e-06 -15.923536 -20.094482 -5.473584 30.41921 -7.190828 1.735927 3e-06 -8.162925 -1e-06 -1.861901 -22.861467 -6.167941 0.0 -1e-06 -1e-06 178.157928 -4.482014 -8.124675 16.207758 -0.200357 0.265686 -84.256378 7.502929 -3.867137 -5.812827 1.423705 2.127702 -0.999999 0.0 0.0 -0.535953 -3.798992 -15.154322 12.809799 -0.040432 0.072457 -81.481979 7.242436 -4.702471 -5.14645 0.827038 1.743154 -1.000001 -0.0 -0.0 
0.0 0.0 0.0 0.0 -0.0 0.0 0.61595 99.673462 2.10861 89.087639 -0.940785 87.744743 -1.316389 -2.341211 -0.02688 -11.582368 -0.606384 0.983087 9.746387 5.394968 -0.4648 10.0378 -1.094496 2.263042 -2.853935 -1.649663 -2.757224 -32.757759 -4.433493 -2.088742 6e-06 -0.0 0.0 0.009971 -0.038528 -0.19822 0.329016 -0.185828 -0.159036 0.330589 0.104779 -0.233136 -17.561398 -45.566269 18.955753 -15.511899 23.629898 -83.55764 11.220676 -5.670918 -1.622381 -1.303379 26.878504 -15.270478 17.636627 -26.322729 52.411186 -19.466665 -14.3956 29.410385 -3e-06 -8.774822 -2e-06 18.70108 -17.788797 4.355544 -0.609776 -1.795651 -3.889327 -4.807088 -11.046813 -2.93785 5e-06 -20.976017 0.0 -5.019969 -25.03356 -4.031879 6e-06 -1e-06 0.0 -10.634533 -5.686969 -3.565587 10.573277 -17.922953 -3.113901 3e-06 -13.821209 1e-06 -0.501777 -31.181505 -4.027012 -11.663575 -59.641056 7.676883 -13.982713 -7.150197 -2.875041 13.772731 -8.401492 -3.218241 0.347735 -34.211552 0.771656 -0.963028 -17.73337 2.621021 1e-06 0.0 -0.0 -17.346415 -20.095213 -4.20178 21.757557 -1.638374 3.866427 2e-06 -6.338824 1e-06 -1.697589 -22.591742 -6.194005 -0.0 -4e-06 -2e-06 -179.2845 -60.897625 -2.236688 -5.289006 26.034153 -64.738007 11.39476 3.951082 0.354283 -12.488663 22.273453 -33.730572 22.182119 -20.375902 49.933327 -16.701817 -16.743538 28.476538 -3e-06 -12.690605 1e-06 16.759403 -17.462299 2.51414 -0.105919 -1.513858 -4.275882 -5.039041 -5.612869 -2.953558 4e-06 -11.020527 -1e-06 -6.1113 -15.895334 -3.840469 1e-06 -1e-06 -1e-06 -10.283373 -5.680287 -4.341838 11.028296 -11.302406 -2.372633 -1.384269 -14.238583 -6.320122 -0.625438 -26.924191 -3.827602 -5.613895 -51.322613 -2.991991 -13.708526 -7.363479 -3.720938 18.141155 -14.052739 -3.242675 5e-06 -18.78727 -0.0 -0.429713 -8.456044 2.555505 0.0 -0.0 -1e-06 -15.923538 -20.094482 -5.473584 30.419222 -7.190829 1.735925 2e-06 -8.162927 -0.0 -1.861904 -22.861473 -6.167941 0.0 -1e-06 -1e-06 178.08345 -4.384208 -8.034022 16.246977 -0.19149 0.245759 -84.202454 7.479785 -3.786866 -5.801197 1.427649 2.123766 -0.999999 0.0 0.0 -0.642947 -3.933065 -15.204695 12.91855 -0.039461 0.077286 -81.456032 7.340493 -4.67161 -5.187209 0.83278 1.740341 -1.000002 -1e-06 -0.0 
0.0 0.0 0.0 0.0 -0.0 0.0 0.709087 99.681023 2.000891 89.139816 -0.939943 87.753136 -1.246311 -2.348973 -0.026441 -11.588922 -0.592743 0.986205 9.773948 5.380873 -0.417279 9.983334 -1.23121 2.262471 -2.847267 -1.642681 -2.724644 -33.009602 -4.481386 -2.074539 7e-06 -1e-06 0.0 0.009336 -0.037958 -0.197767 0.334139 -0.187179 -0.160798 0.334148 0.10724 -0.230953 -17.621714 -45.482182 18.991436 -15.639146 23.563028 -83.175972 11.009481 -5.673299 -1.576257 -1.371054 26.688461 -15.587455 17.636633 -26.322748 52.411213 -19.466665 -14.3956 29.410395 -3e-06 -8.774822 -2e-06 18.675194 -17.831875 4.362752 -0.609776 -1.795652 -3.889329 -4.807089 -11.046816 -2.93785 5e-06 -20.976021 1e-06 -5.019972 -25.033564 -4.031879 5e-06 1e-06 -0.0 -10.634535 -5.686973 -3.565589 10.573277 -17.922955 -3.1139 3e-06 -13.821212 1e-06 -0.501779 -31.181511 -4.027013 -11.705624 -59.591297 7.721355 -13.982716 -7.150199 -2.875043 13.772733 -8.401495 -3.218242 0.347733 -34.211559 0.771658 -0.96303 -17.733376 2.621022 0.0 0.0 -0.0 -17.34642 -20.095221 -4.201782 21.757561 -1.638376 3.866428 1e-06 -6.338825 1e-06 -1.69759 -22.591749 -6.194006 0.0 -4e-06 -2e-06 -179.134872 -60.824879 -2.35676 -5.35547 25.915602 -64.354805 11.231699 3.961673 0.349092 -12.329432 22.145824 -33.965126 22.182112 -20.375895 49.933311 -16.701815 -16.743532 28.47653 -3e-06 -12.6906 1e-06 16.782364 -17.498917 2.513574 -0.10592 -1.513854 -4.275882 -5.03904 -5.612873 -2.953556 4e-06 -11.020524 -2e-06 -6.111298 -15.895334 -3.840469 -0.0 0.0 1e-06 -10.283371 -5.680288 -4.341838 11.028295 -11.302404 -2.372634 -1.384268 -14.238585 -6.320121 -0.625437 -26.924194 -3.827601 -5.625114 -51.32436 -2.949166 -13.708526 -7.363477 -3.720938 18.14115 -14.052739 -3.242675 4e-06 -18.78727 -2e-06 -0.429711 -8.456043 2.555502 -0.0 -0.0 -1e-06 -15.923536 -20.094484 -5.473581 30.419214 -7.190827 1.735924 2e-06 -8.162925 -0.0 -1.861903 -22.861469 -6.167941 1e-06 -0.0 -0.0 178.008606 -4.284031 -7.957049 16.258589 -0.181157 0.225633 -84.129097 7.433156 -3.715059 -5.776315 1.422989 2.122721 -1.0 0.0 0.0 -0.767787 -4.061765 -15.256075 13.035231 -0.04033 0.080847 -81.431801 7.427921 -4.665202 -5.203895 0.836221 1.736573 -1.000002 -0.0 -0.0 
